<!DOCTYPE svg PUBLIC "-//W3C//DTD SVG 1.1//EN" "http://www.w3.org/Graphics/SVG/1.1/DTD/svg11.dtd">
<!-- Uploaded to: SVG Repo, www.svgrepo.com, Transformed by: SVG Repo Mixer Tools -->
<svg width="800px" height="800px" viewBox="-7 -7 34.00 34.00" xmlns="http://www.w3.org/2000/svg" fill="none" stroke="#000000" stroke-width="0.0002">
<g id="SVGRepo_bgCarrier" stroke-width="0" transform="translate(0.09999999999999964,0.09999999999999964), scale(0.99)">
<rect x="-7" y="-7" width="34.00" height="34.00" rx="2.04" fill="#294056" strokewidth="0"/>
</g>
<g id="SVGRepo_tracerCarrier" stroke-linecap="round" stroke-linejoin="round" stroke="#CCCCCC" stroke-width="0.2"/>
<g id="SVGRepo_iconCarrier"> <path fill="#ffffff" fill-rule="evenodd" d="M4 1a2 2 0 00-2 2v14a2 2 0 002 2h12a2 2 0 002-2V7.414A2 2 0 0017.414 6L13 1.586A2 2 0 0011.586 1H4zm0 2h7.586L16 7.414V17H4V3zm2 2a1 1 0 000 2h5a1 1 0 100-2H6zm-1 5a1 1 0 011-1h8a1 1 0 110 2H6a1 1 0 01-1-1zm1 3a1 1 0 100 2h8a1 1 0 100-2H6z"/> </g>
</svg>